<svg xmlns="http://www.w3.org/2000/svg" viewBox="0 0 910.29 181.12"><defs><style>.cls-1,.cls-2{fill:#7e1f2f;stroke:#7e1f2f;stroke-miterlimit:10;}.cls-1{stroke-width:4px;}.cls-2{stroke-width:0.5px;}.cls-3{fill:#fff;}</style></defs><g id="Layer_2" data-name="Layer 2"><g id="Layer_1-2" data-name="Layer 1"><path class="cls-1" d="M34.71,174.55H2V6.57H53.29L83.8,139.7h0L113.93,6.57h50.6v168H131.82V33.31h0L100.48,174.55H66.06L34.74,30.22h0Z"/><path class="cls-1" d="M197.4,155.47q-21.77-23.65-21.77-64,0-41.13,21.77-65.3T256.1,2Q293.26,2,315,26.17t21.72,65.3q0,40.35-21.72,64T256.1,179.12Q219.17,179.12,197.4,155.47Zm92.21-21.54q12.09-15.37,12.09-42.68,0-27.89-12.09-43.66T256.1,31.83q-21.32,0-33.39,15.76T210.63,91.25q0,27.3,12,42.68T256.1,149.3Q277.53,149.3,289.61,133.93Z"/><path class="cls-1" d="M419.52,6.57h35V127.36q0,25.59-13.68,38.68t-40.34,13.08q-28.38,0-41.61-14.4t-12.31-44.45V110.21h33.29v10.06q-.47,15.31,4.5,22.68t15.78,7.37q10.38,0,14.88-5.37t4.5-17.59Z"/><path class="cls-1" d="M520.21,6.57h40.57l59.27,168H582.94l-11.33-34.17H508.06l-11,34.17H460.94Zm-2.44,104.9h44.48L540,43.94h0Z"/><path class="cls-1" d="M587.79,6.57H625L661.83,134.9h-.09L698.49,6.57h36.1l-56.76,168H644.55Z"/><path class="cls-1" d="M748.32,174.55V6.57H871.64V36.4H783.31V72.05h82V101h-82v43.77h92.21v29.82Z"/><rect class="cls-2" x="444.74" y="4.57" width="86" height="18.5"/><rect class="cls-3" x="505.55" y="23.57" width="369.97" height="4.33"/><rect class="cls-3" x="494.64" y="57.28" width="369.97" height="4.33"/><rect class="cls-3" x="476.21" y="91" width="399.31" height="4.01"/><rect class="cls-3" x="469.64" y="126.99" width="399.31" height="4.01"/><rect class="cls-3" x="461.53" y="161.54" width="448.76" height="4.01"/></g></g></svg>