<svg xmlns="http://www.w3.org/2000/svg" viewBox="0 0 913.61 220.81"><defs><style>.cls-1{fill:#ecb12f;}.cls-2{fill:#1a84da;}</style></defs><g id="Layer_2" data-name="Layer 2"><g id="Layer_1-2" data-name="Layer 1"><rect class="cls-1" y="192.26" width="913.61" height="28.55"/><rect class="cls-2" y="146.58" width="913.61" height="28.55"/><path d="M243.88,97.62h-11.2v-48h-.16l-10.71,48H210.06l-10.47-48h-.16v48H188.24V40.23h17.5l10.4,45.24h.16l10.23-45.24h17.35Z"/><path d="M292.32,76.36a25.39,25.39,0,0,1-1.8,10,19.9,19.9,0,0,1-4.8,7,19,19,0,0,1-6.91,4.07,26.35,26.35,0,0,1-16.47,0,19.07,19.07,0,0,1-6.91-4.07,19.9,19.9,0,0,1-4.8-7,25.39,25.39,0,0,1-1.8-10,25.08,25.08,0,0,1,1.8-10,20,20,0,0,1,4.8-7,19.45,19.45,0,0,1,6.91-4.11,25.61,25.61,0,0,1,16.47,0,19.37,19.37,0,0,1,6.91,4.11,20,20,0,0,1,4.8,7A25.08,25.08,0,0,1,292.32,76.36Zm-11.51,0a25.55,25.55,0,0,0-.4-4.28,13.06,13.06,0,0,0-1.48-4.19,8.92,8.92,0,0,0-3.12-3.2,11.43,11.43,0,0,0-10.51,0,9,9,0,0,0-3.08,3.2,13.06,13.06,0,0,0-1.48,4.19,25.55,25.55,0,0,0-.4,4.28,25.89,25.89,0,0,0,.4,4.36,13.15,13.15,0,0,0,1.48,4.19,8.7,8.7,0,0,0,3.08,3.16,11.75,11.75,0,0,0,10.51,0,8.58,8.58,0,0,0,3.12-3.16,13.15,13.15,0,0,0,1.48-4.19A25.89,25.89,0,0,0,280.81,76.36Z"/><path d="M308.47,102.1a20,20,0,0,1-.92,6.68,8.21,8.21,0,0,1-2.68,3.83,9.53,9.53,0,0,1-4.32,1.72,37,37,0,0,1-5.75.4H292v-9h2a7.7,7.7,0,0,0,1-.08,2.63,2.63,0,0,0,1.08-.44,2.8,2.8,0,0,0,.88-1.16,5.59,5.59,0,0,0,.36-2.24V55.1h11.19Zm0-52H297.28V39.67h11.19Z"/><path d="M350.44,89.31c0,2.51.24,4.18.72,5a3.15,3.15,0,0,0,1.75,1.6v1.67H340.84c-.16-.48-.29-.9-.4-1.27s-.2-.74-.28-1.08-.14-.74-.2-1.16-.1-.94-.16-1.52c-.64.64-1.36,1.33-2.16,2.08a13.19,13.19,0,0,1-2.83,2,18.77,18.77,0,0,1-3.76,1.48,18.46,18.46,0,0,1-5,.6,16.36,16.36,0,0,1-4.71-.68,11.55,11.55,0,0,1-4.16-2.19,11.23,11.23,0,0,1-3-3.88,13.13,13.13,0,0,1-1.12-5.64,15,15,0,0,1,.92-5.47,11.47,11.47,0,0,1,2.6-4,12.88,12.88,0,0,1,4-2.68,19.91,19.91,0,0,1,4.91-1.4l10.08-1.52a7.4,7.4,0,0,0,2.59-.84,2.56,2.56,0,0,0,1.32-2.51,4.44,4.44,0,0,0-.76-2.76,4.64,4.64,0,0,0-1.83-1.48,7.55,7.55,0,0,0-2.4-.6c-.88-.08-1.67-.12-2.36-.12a8.84,8.84,0,0,0-3.4.56,5.12,5.12,0,0,0-2,1.44,5.71,5.71,0,0,0-1,1.92,10.12,10.12,0,0,0-.4,2H314.46A18.56,18.56,0,0,1,316.74,61a12.91,12.91,0,0,1,4.44-4.52,16.18,16.18,0,0,1,5.83-2,43.56,43.56,0,0,1,6.48-.48,34.06,34.06,0,0,1,5.15.44,18.67,18.67,0,0,1,5.56,1.75,12.35,12.35,0,0,1,4.44,3.76,10.46,10.46,0,0,1,1.8,6.36Zm-11-12.39a9.47,9.47,0,0,1-2.47,1.2,32.73,32.73,0,0,1-5.12,1.12,21.63,21.63,0,0,0-3,.64,8.64,8.64,0,0,0-2.4,1.08,4.87,4.87,0,0,0-1.64,1.79,6.09,6.09,0,0,0-.6,2.88,5.3,5.3,0,0,0,.52,2.44,4.94,4.94,0,0,0,1.28,1.6,4.58,4.58,0,0,0,1.68.84,6.83,6.83,0,0,0,1.72.24,11.43,11.43,0,0,0,3.64-.6,10.85,10.85,0,0,0,3.2-1.68,8.61,8.61,0,0,0,2.27-2.64,6.91,6.91,0,0,0,.88-3.47Z"/><path d="M378.89,97.62H367.14L351.87,55.1h12.48l8.79,31.33h.16l9-31.33h11.91Z"/><path d="M433.81,85.15a18.9,18.9,0,0,1-3.15,6.44,17.89,17.89,0,0,1-10,6.47,23.4,23.4,0,0,1-5.55.68,28.83,28.83,0,0,1-8.36-1.16A16.29,16.29,0,0,1,400,93.71a18.6,18.6,0,0,1-4.48-7.2,32.35,32.35,0,0,1-1.64-11c0-.85.07-2,.2-3.36a23.89,23.89,0,0,1,.92-4.47,24.19,24.19,0,0,1,2.08-4.84,16.25,16.25,0,0,1,3.64-4.4,18.31,18.31,0,0,1,5.59-3.19,22.75,22.75,0,0,1,8-1.24,25.89,25.89,0,0,1,6.63.92,15.74,15.74,0,0,1,6.48,3.51,19.68,19.68,0,0,1,4.91,7.16,30.19,30.19,0,0,1,2,11.83v2H405.12a27,27,0,0,0,.39,3,10.58,10.58,0,0,0,1.32,3.43,8.26,8.26,0,0,0,3,2.84,10.47,10.47,0,0,0,5.32,1.16,9.13,9.13,0,0,0,4.43-1.16,5.42,5.42,0,0,0,2.76-3.48Zm-11-13a11.68,11.68,0,0,0-1.12-4.27,8.86,8.86,0,0,0-2.08-2.76A7.11,7.11,0,0,0,417,63.61a9.71,9.71,0,0,0-2.8-.44A7.8,7.8,0,0,0,408,65.53a11.57,11.57,0,0,0-2.6,6.59Z"/><path d="M458.44,40.23h27.89a22.11,22.11,0,0,1,8.72,1.48,15,15,0,0,1,5.39,3.67,12.83,12.83,0,0,1,2.76,4.76,16.22,16.22,0,0,1,.8,4.8,14.85,14.85,0,0,1-.76,5.15,11.83,11.83,0,0,1-1.84,3.36,8.58,8.58,0,0,1-2.32,2c-.82.48-1.53.88-2.11,1.2a13.36,13.36,0,0,1,4.35,2.47A12.57,12.57,0,0,1,504,72.52a13.57,13.57,0,0,1,1.4,3.88,21.52,21.52,0,0,1,.4,4.2,16.33,16.33,0,0,1-1.32,6.51,16.1,16.1,0,0,1-3.64,5.32,20,20,0,0,1-2.55,2.16A13.14,13.14,0,0,1,495,96.22a24.44,24.44,0,0,1-4.92,1,61.34,61.34,0,0,1-7.31.36h-24.3ZM470,62.69H484a11.4,11.4,0,0,0,6-1.48,5.28,5.28,0,0,0,2.44-4.92c0-2.39-.79-4-2.36-4.87a13.61,13.61,0,0,0-6.43-1.28H470Zm0,25h14.71c2.93,0,5.19-.66,6.79-2s2.4-3.46,2.4-6.39a6.37,6.37,0,0,0-.76-3.24,6.68,6.68,0,0,0-2-2.16,7.83,7.83,0,0,0-2.76-1.2,14,14,0,0,0-3.15-.36H470Z"/><path d="M548.61,85.15a18.91,18.91,0,0,1-3.16,6.44,17.92,17.92,0,0,1-10,6.47,23.54,23.54,0,0,1-5.56.68,28.76,28.76,0,0,1-8.35-1.16,16.26,16.26,0,0,1-6.72-3.87,18.58,18.58,0,0,1-4.47-7.2,32.1,32.1,0,0,1-1.64-11c0-.85.06-2,.2-3.36a23.11,23.11,0,0,1,.92-4.47,24.72,24.72,0,0,1,2.07-4.84,16.25,16.25,0,0,1,3.64-4.4,18.24,18.24,0,0,1,5.6-3.19,22.65,22.65,0,0,1,8-1.24,26,26,0,0,1,6.64.92,15.77,15.77,0,0,1,6.47,3.51,19.82,19.82,0,0,1,4.92,7.16,30.37,30.37,0,0,1,2,11.83v2H519.91a25.06,25.06,0,0,0,.4,3,10.14,10.14,0,0,0,1.32,3.43,8.15,8.15,0,0,0,3,2.84,10.47,10.47,0,0,0,5.32,1.16,9.17,9.17,0,0,0,4.44-1.16,5.49,5.49,0,0,0,2.76-3.48Zm-11-13a12.09,12.09,0,0,0-1.12-4.27,9,9,0,0,0-2.08-2.76,7.23,7.23,0,0,0-2.64-1.48,9.65,9.65,0,0,0-2.8-.44,7.79,7.79,0,0,0-6.11,2.36,11.5,11.5,0,0,0-2.6,6.59Z"/><path d="M564.83,97.62H553.64V40.23h11.19Z"/><path d="M583.86,97.62H572.67V40.23h11.19Z"/><g id="g3"><g id="g6"><path id="path8" class="cls-2" d="M50.4,94.39a54.6,54.6,0,1,0-7.88-28.28A54.64,54.64,0,0,0,50.4,94.39ZM97.06,0A66.08,66.08,0,1,1,31,66.08,66.1,66.1,0,0,1,97.06,0Z"/><polygon id="polygon10" class="cls-2" points="138.28 93.01 138.25 93.01 138.28 74.27 138.28 93.01"/><path id="path12" class="cls-2" d="M127.47,63c.21,10,10.81,11.5,10.81,11.32l0,18.74-34,0v9.19H89.93l-.06-9.19L56,93.25l0-19c8.09-1.5,10.4-6.67,10.78-11.32l1.89-22.46A10.43,10.43,0,0,1,78,30.78,70.81,70.81,0,0,1,89.45,30l.11-8.06h15.15l.1,8.09c3.07.07,8.92.45,11.47.76a10.31,10.31,0,0,1,6.16,2.86,10.5,10.5,0,0,1,1.62,2.07,11.08,11.08,0,0,1,1.52,4.78Zm-3.93,17.6,0-3.28c-7.06-3.3-7.58-7.33-8-11.22L114,48.76c-.21-4.44-3.52-6.27-6.69-6.51-3.4-.27-6.81-.41-10.19-.41s-6.82.14-10.19.41c-2.93,0-6.23,1.76-6.68,6.51L78.67,65.81c-1,10.26-8,11.53-8,11.61l0,3.13Z"/><path id="path14" class="cls-2" d="M122.44,33.64a10.5,10.5,0,0,1,1.62,2.07A10.5,10.5,0,0,0,122.44,33.64Z"/></g></g></g></g></svg>