<svg xmlns="http://www.w3.org/2000/svg" viewBox="0 0 539.27 161.36"><defs><style>.cls-1{fill:#00abee;}</style></defs><g id="Layer_2" data-name="Layer 2"><g id="Layer_1-2" data-name="Layer 1"><g id="g2304"><path id="path446" class="cls-1" d="M98.55,99.82c-15.55-1.25-30.84-3-46.64-3.51-16.8-.25-31.09-.25-50.9-.25a76.19,76.19,0,0,0,3.26,10.53H57.93c15.79-.5,31.09-3.51,46.63-4,15.8-.75,52.66,4.51,52.91,3.26.75-3.76,2-5.52,2.25-9.28-20.31,1.26-40.36,4.52-61.17,3.26"/><path id="path448" class="cls-1" d="M43.39,151.72c24.07,13.54,54.41,12.54,77.72-1.25h-81a9.78,9.78,0,0,0,3.26,1.25"/><path id="path450" class="cls-1" d="M149.44,122.63c-45.64,1.76-86.5,0-137.65.26,2.76,4,7.52,10,7.52,10h122.6s5.27-5.51,7.53-10.28"/><path id="path452" class="cls-1" d="M67.7,109.6c-20.81-.51-41.62-.26-62.43-.26-.26,0,3.26,7.78,4.76,10.54,33.35-.25,59.42.24,87.76-1,17.55-.75,36.35.5,53.4,1A40.14,40.14,0,0,0,156,109.34c-12.29.26-24.32.75-37.11,1.26-17,1-34.1-.75-51.15-1"/><path id="path454" class="cls-1" d="M77.73,48.18c25.83-.51,51.91-1.76,77.48,1.5a25.85,25.85,0,0,0-2.76-6c-25.32,2.26-50.64,1.76-76,.75-10.53-.25-20.06-2-30.59-2.76-11.53-1-23.56-.75-35.85-.75-1.51,3.26-3,7.28-4.52,10.78,30.34,0,34.86,0,72.21-3.5"/><path id="path456" class="cls-1" d="M79,34.13c22.06-1.51,53.91-.25,68.45,1.5a15.41,15.41,0,0,0-4-5.26c-2.26.25-5.77.5-8.28.5-18.05.5-35.6.75-53.65,0-9.53-.25-18.81-2-28.84-3-11-.75-22.32-.25-32.59-.25a81.9,81.9,0,0,0-8,10.53c10.28,0,20.56.25,31.34-.25,12.29-.5,23.07-3,35.61-3.76"/><path id="path458" class="cls-1" d="M63.2,62.46c25.07-2.26,49.89-1.51,75-1.26,7,0,14.05,1.51,21.32,2.26a37,37,0,0,0-2-6.27A661.13,661.13,0,0,1,77,58.2c-18.31-.76-23.57-2.76-35.61-3-12.29-1-23.57-.75-37.11-.75a77.16,77.16,0,0,0-3,10.78H32.85c10.28,0,20.57-1.76,30.34-2.76"/><path id="path460" class="cls-1" d="M88,20.84c16.06-1.5,31.6-.75,47.4,1a28,28,0,0,0-6.27-5.76c-23.07,2.75-45.38.5-69.2-2-8.78-1-15.8-.25-24.08-.75A105,105,0,0,0,23.33,24.1c11.78,0,23.32,0,34.6-.5,10-1,19.81-2.26,30.09-2.76"/><path id="path462" class="cls-1" d="M93,8.81a105.43,105.43,0,0,1,26.58,1.25C96-3.48,64.44-3.48,40.62,10.82H73c6.51,0,12.78-1.51,20-2"/><path id="path464" class="cls-1" d="M126.37,147s9-6.52,12.29-10.28H22.57s7.77,7.77,12.54,10.28h91.27"/><path id="path466" class="cls-1" d="M131.13,86c-14.79.25-35.35.49-49.39-.26-31.59-3-30.84-4-81.74-4,0,0,0,7.27.76,10.53H27.58c7.77,0,14.29,0,22.57-.5,13.29-.25,25.82-3,38.36-3,14.29-.25,26.58-.25,41.12,0,9.53.25,21.56,1.76,31.34,3,.25-2.5.25-5,.25-8-9.53.25-20.56,2-30.09,2.26"/><path id="path468" class="cls-1" d="M43.63,69c-14.28-1-29.08-.5-42.87-.5A68.6,68.6,0,0,0,0,78.75H27.09c5,0,9.78,0,14.79-.25,12.79-.25,24.82-2.26,37.36-3.26C97.79,74,116.85,75,135.9,75c8.28,0,23.57,2.76,25.33,2.51a24,24,0,0,0-.75-7.27c-8.28,1-17,1.5-25.33,1.75-18.05.25-37.1.75-55.66-.25C67.71,71,55.92,69.73,43.63,69"/><g id="text1165"><path id="path2344" d="M173.24,128.59h16.38c3.43,0,6-1,7.91-3a10.5,10.5,0,0,0,2.79-7.32c0-4.38-2-7-6.62-8.81a8.09,8.09,0,0,0,5-7.92,8.67,8.67,0,0,0-2.89-6.67c-1.94-1.74-4.38-2.54-7.87-2.54H173.24Zm4.63-20.66V96.38h9c2.59,0,4,.34,5.28,1.29a6,6,0,0,1,0,9c-1.25,1-2.69,1.3-5.28,1.3Zm0,16.58V112h11.3c4.08,0,6.52,2.34,6.52,6.27s-2.44,6.23-6.52,6.23Z"/><path id="path2346" d="M228.05,116.94c0-4-.3-6.37-1-8.32a10.94,10.94,0,0,0-10.56-6.87c-7.27,0-11.95,5.53-11.95,14.14s4.48,13.84,11.85,13.84c6,0,10.11-3.38,11.16-9.06h-4.19c-1.14,3.44-3.48,5.23-6.82,5.23a7.19,7.19,0,0,1-6.27-3.39c-1-1.49-1.34-3-1.39-5.57Zm-19.12-3.39c.35-4.83,3.29-8,7.47-8s7.17,3.28,7.17,8Z"/><path id="path2348" d="M237.56,92.29h-4.18v36.3h4.18Z"/><path id="path2350" d="M248.62,92.29h-4.18v36.3h4.18Z"/><path id="path2352" d="M274.56,92.29h-4.63v36.3h22.55V124.5H274.56Z"/><path id="path2354" d="M320.41,126.15a3.81,3.81,0,0,1-.9.09c-1.44,0-2.24-.74-2.24-2V108.87c0-4.63-3.38-7.12-9.81-7.12-3.83,0-6.87,1.1-8.66,3-1.19,1.34-1.69,2.83-1.79,5.42h4.18c.35-3.18,2.24-4.63,6.12-4.63s5.83,1.4,5.83,3.89v1.09c-.05,1.79-.95,2.44-4.33,2.89-5.88.75-6.77,1-8.37,1.59a7,7,0,0,0-4.58,7c0,4.73,3.29,7.72,8.57,7.72,3.28,0,5.92-1.15,8.86-3.83.3,2.68,1.59,3.83,4.28,3.83a10.15,10.15,0,0,0,2.84-.45Zm-7.27-5.78a4.09,4.09,0,0,1-1.64,3.39,8.87,8.87,0,0,1-6.18,2.34c-3.23,0-5.13-1.55-5.13-4.19s1.8-4.13,6.28-4.78,5.27-.79,6.67-1.44Z"/><path id="path2356" d="M324.14,92.29v36.3h3.74v-3.34a9.17,9.17,0,0,0,8.26,4.48c6.87,0,11.35-5.62,11.35-14.29,0-8.46-4.23-13.69-11.15-13.69a8.9,8.9,0,0,0-8.06,4.28V92.29Zm11.41,13.35c4.63,0,7.61,4,7.61,10.25,0,5.93-3.08,10-7.61,10s-7.27-4-7.27-10.11,2.83-10.1,7.27-10.1Z"/><path id="path2358" d="M362.68,101.75c-7.37,0-11.75,5.23-11.75,14s4.38,14,11.8,14,11.8-5.23,11.8-13.79c0-9.06-4.29-14.19-11.85-14.19Zm.05,3.84c4.68,0,7.46,3.83,7.46,10.3,0,6.17-2.88,10-7.46,10s-7.47-3.84-7.47-10.16,2.84-10.15,7.47-10.15Z"/><path id="path2360" d="M380.25,102.5v26.09h4.19V115c.05-6.27,2.64-9.06,8.36-8.91V101.9a10.44,10.44,0,0,0-1.59-.15c-2.69,0-4.73,1.59-7.12,5.48V102.5Z"/><path id="path2362" d="M419.83,126.15a3.7,3.7,0,0,1-.89.09c-1.45,0-2.24-.74-2.24-2V108.87c0-4.63-3.39-7.12-9.81-7.12-3.83,0-6.87,1.1-8.66,3-1.2,1.34-1.7,2.83-1.8,5.42h4.19c.34-3.18,2.24-4.63,6.12-4.63s5.82,1.4,5.82,3.89v1.09c-.05,1.79-.94,2.44-4.33,2.89-5.87.75-6.77,1-8.36,1.59a7,7,0,0,0-4.58,7c0,4.73,3.28,7.72,8.56,7.72,3.29,0,5.93-1.15,8.86-3.83.3,2.68,1.6,3.83,4.29,3.83a10.09,10.09,0,0,0,2.83-.45Zm-7.27-5.78a4.06,4.06,0,0,1-1.64,3.39,8.83,8.83,0,0,1-6.17,2.34c-3.24,0-5.13-1.55-5.13-4.19s1.79-4.13,6.27-4.78,5.28-.79,6.67-1.44Z"/><path id="path2364" d="M433,102.5h-4.28V95.33h-4.13v7.17H421v3.38h3.53V125.6c0,2.69,1.79,4.13,5,4.13a17.63,17.63,0,0,0,3.38-.35V125.9a7.58,7.58,0,0,1-2,.2c-1.79,0-2.29-.5-2.29-2.34V105.88H433Z"/><path id="path2366" d="M447.12,101.75c-7.37,0-11.75,5.23-11.75,14s4.38,14,11.8,14S459,124.5,459,115.94c0-9.06-4.28-14.19-11.85-14.19Zm.05,3.84c4.68,0,7.47,3.83,7.47,10.3,0,6.17-2.89,10-7.47,10s-7.47-3.84-7.47-10.16,2.84-10.15,7.47-10.15Z"/><path id="path2368" d="M464.68,102.5v26.09h4.18V115c.05-6.27,2.64-9.06,8.36-8.91V101.9a10.33,10.33,0,0,0-1.59-.15c-2.69,0-4.73,1.59-7.12,5.48V102.5Z"/><path id="path2370" d="M485.35,102.5h-4.13v26.09h4.13Zm0-10.21h-4.18v5.23h4.18Z"/><path id="path2372" d="M514.49,116.94c0-4-.3-6.37-1-8.32a10.91,10.91,0,0,0-10.55-6.87c-7.27,0-11.95,5.53-11.95,14.14s4.48,13.84,11.85,13.84c6,0,10.11-3.38,11.15-9.06h-4.18c-1.15,3.44-3.49,5.23-6.82,5.23a7.19,7.19,0,0,1-6.27-3.39c-1-1.49-1.35-3-1.4-5.57Zm-19.12-3.39c.35-4.83,3.29-8,7.47-8s7.17,3.28,7.17,8Z"/><path id="path2374" d="M538.23,109.77c-.05-5.13-3.44-8-9.46-8s-10,3.14-10,8c0,4.08,2.09,6,8.27,7.51l3.88,1c2.89.7,4,1.74,4,3.58,0,2.49-2.44,4.14-6.07,4.14a7.2,7.2,0,0,1-5.18-1.75,5.46,5.46,0,0,1-1.19-3.33h-4.39c.2,6,3.59,8.91,10.41,8.91,6.57,0,10.75-3.24,10.75-8.26,0-3.89-2.19-6-7.36-7.27l-4-1c-3.38-.8-4.83-1.89-4.83-3.73,0-2.44,2.14-3.94,5.53-3.94s5.13,1.45,5.23,4.19Z"/></g><path d="M175.29,37.56h18.36l6,24.64h.12l6-24.64H224.1V79.45H211.9V52.58h-.12l-7.27,26.87h-9.62l-7.28-26.87h-.12V79.45h-12.2Z"/><path d="M250.74,36.57c12.73,0,21.24,9.15,21.24,21.94s-8.51,21.94-21.24,21.94S229.5,71.3,229.5,58.51,238,36.57,250.74,36.57Zm0,33.44c3.29,0,8.33-2.17,8.33-11.5S254,47,250.74,47s-8.33,2.17-8.33,11.5S247.45,70,250.74,70Z"/><path d="M306.65,64.38c0,11.55-5.22,16.07-15.72,16.07s-15.37-5.93-15.37-15.08V61.85h11.61v2.41c0,3.22,0,6.22,3.47,6.22s3.1-4,3.1-5.93v-27h12.91Z"/><path d="M324.9,37.56h12.61l15.26,41.89H339.39l-1.76-6H324.31l-1.88,6h-13Zm10.15,26.93-3.76-12.9h-.11l-4.05,12.9Z"/><path d="M376.47,79.45H362l-12.5-41.89h13L369.43,63h.12l6.74-25.41h13.26Z"/><path d="M391.9,37.56h34.67V48.3H404.81v5.22h19.77v10H404.81v5.22h22.41V79.45H391.9Z"/></g></g></g></svg>