<svg xmlns="http://www.w3.org/2000/svg" viewBox="0 0 871.48 127.04"><defs><style>.cls-1{fill:#808285;}.cls-2{fill:#e91d25;}.cls-3{fill:#ed5a32;}</style></defs><g id="Layer_2" data-name="Layer 2"><g id="Layer_1-2" data-name="Layer 1"><path class="cls-1" d="M0,25.91H32.3L42.82,69.24H43L53.55,25.91h32.3V99.58H64.39V52.32h-.21L51.39,99.58H34.46L21.67,52.32h-.21V99.58H0Z"/><path class="cls-1" d="M132.69,24.15c22.39,0,37.35,16.1,37.35,38.59s-15,38.59-37.35,38.59S95.34,85.24,95.34,62.74,110.3,24.15,132.69,24.15Zm0,58.82c5.78,0,14.65-3.82,14.65-20.23s-8.87-20.22-14.65-20.22S118,46.34,118,62.74,126.91,83,132.69,83Z"/><path class="cls-1" d="M231,73.06c0,20.33-9.18,28.27-27.65,28.27-18.68,0-27-10.42-27-26.52V68.62h20.43v4.24c0,5.67,0,10.93,6.09,10.93,5.88,0,5.47-7.12,5.47-10.42V25.91H231Z"/><path class="cls-1" d="M263.11,25.91h22.18l26.83,73.67H288.6l-3.1-10.52H262.08l-3.3,10.52H236ZM281,73.27l-6.6-22.7h-.21L267,73.27Z"/><path class="cls-1" d="M353.81,99.58H328.42l-22-73.67h22.91l12.07,44.67h.21L353.5,25.91h23.32Z"/><path class="cls-1" d="M380.94,25.91h61V44.79H403.64V54h34.77V71.51H403.64V80.7h39.42V99.58H380.94Z"/><path class="cls-2" d="M586.71,11V61.15H563.18V59.57c0-1.58,0-3.08,1.58-4.66-1.58,1.58-1.58,1.58-3.16,1.58-15.73-1.58-25.13-1.58-25.13-1.58h-1.58c1.58,0,0,0,1.58-1.58a223.87,223.87,0,0,1,11-22A1.55,1.55,0,0,1,549,29.79a4.89,4.89,0,0,1-3.16-1.58c-1.49,0-1.49-1.58-1.49-1.58L560,0h15.72A10.7,10.7,0,0,1,586.71,11Z"/><path class="cls-2" d="M586.71,65.89v50.17a10.71,10.71,0,0,1-11,11H560l-15.64-26.62V98.84h1.5L549,95.69a1.55,1.55,0,0,1-1.58-1.58,114.28,114.28,0,0,1-11-22c-1.58,0,0,0-1.58-1.58,1.58,1.58,1.58,0,1.58,0h28.28c-1.58,0-1.58-1.49-1.58-3.08s1.58-1.58,0-1.58h23.54Z"/><path class="cls-2" d="M541.2,102l14.07,25h-69l14-25,.08-.08c1.58,0,1.58,0,1.58-1.58,0,1.58,0,1.58,1.58,1.58a5,5,0,0,1,2.52,1c-.16.54.63.54.63.54a7.29,7.29,0,0,0-.63-.54c-.08-.17.17-.56.63-1,3.95-7,7.43-12.56,10-16.28S520.83,80,520.83,80h1.5s4.74,7.82,12.56,22l1.58,1.49a5.62,5.62,0,0,1,3.15-1.49l1.58-1.58Z"/><path class="cls-2" d="M486.3,0h69L541.2,25h-1.58c-1.57-1.5-3.15-3.08-3.15-3.08A4.64,4.64,0,0,1,534.89,25C527.07,37.6,522.33,45.5,522.33,45.5c-1.5,0-1.5,0-1.5,1.58V45.5A233.67,233.67,0,0,1,506.69,25V22s-1.57,1.58-3.15,3.08h-3.16L500.3,25Z"/><path class="cls-3" d="M506.05,103a7.29,7.29,0,0,1,.63.54S505.89,103.49,506.05,103Z"/><path class="cls-2" d="M494.12,31.37c7.82,14.14,12.56,22,12.56,22v1.58s-11,0-26.7,1.58c-1.49,0-1.49,0-1.49-1.58v6.24H454.94V11a10.67,10.67,0,0,1,11-11h15.64l15.72,26.62h1.58a1.55,1.55,0,0,0-1.58,1.58c-1.58,1.58-3.16,1.58-4.75,1.58C494.12,29.78,494.12,29.78,494.12,31.37Z"/><path class="cls-2" d="M497.28,98.83h1.58c-1.58,0-1.58,0-1.58,1.58L481.56,127H465.92a10.67,10.67,0,0,1-11-11V65.89h23.54v4.66h28.19c-1.57,1.58,0,1.58,0,1.58s-4.74,9.48-12.56,22c0,1.58,0,1.58-1.58,1.58C494.12,95.68,495.7,97.25,497.28,98.83Z"/><path class="cls-1" d="M598.59,26.31h40.87c19.64,0,23.83,11.07,23.83,18.7s-3.66,11.61-9.2,14.64c6.69,2.3,13,7.63,13,18.6,0,15-13,22.68-26.13,22.68H598.59Zm23,29.05h12.13c4.8,0,7.83-1.36,7.83-6.16,0-3.77-3.13-5.13-7.83-5.13H621.58Zm0,27.8h13.48c4.81,0,9-1.35,9-7.1,0-4.39-2.61-6.8-8-6.8H621.58Z"/><path class="cls-1" d="M676,26.31h61.78V45.43H699v9.31h35.22V72.5H699v9.31H739v19.12H676Z"/><path class="cls-1" d="M749.61,26.31h23v55.5h33v19.12h-56Z"/><path class="cls-1" d="M815.46,26.31h23v55.5h33v19.12h-56Z"/></g></g></svg>