<svg xmlns="http://www.w3.org/2000/svg" viewBox="0 0 171.86 256.55"><defs><style>.cls-1{fill:#1a84da;}</style></defs><g id="Layer_2" data-name="Layer 2"><g id="Layer_1-2" data-name="Layer 1"><g id="g3"><g id="g6"><path id="path8" class="cls-1" d="M51.93,106.38A61.52,61.52,0,1,0,43,74.52,61.56,61.56,0,0,0,51.93,106.38ZM104.52,0A74.49,74.49,0,1,1,30,74.48,74.5,74.5,0,0,1,104.52,0Z" transform="translate(-19.72)"/><polygon id="polygon10" class="cls-1" points="131.26 104.83 131.22 104.83 131.26 83.71 131.26 104.83"/><path id="path12" class="cls-1" d="M138.8,71C139,82.2,151,83.91,151,83.72l0,21.11-38.27,0v10.37H96.49l-.08-10.37-38.23.24,0-21.39C67.34,82,69.94,76.19,70.37,71L72.5,45.64A11.75,11.75,0,0,1,83,34.7a79.63,79.63,0,0,1,13-.9l.11-9.08h17.08l.12,9.12c3.45.08,10,.51,12.92.86a11.61,11.61,0,0,1,6.95,3.22A11.43,11.43,0,0,1,135,40.25a12.44,12.44,0,0,1,1.71,5.39Zm-4.43,19.83,0-3.68c-8-3.72-8.54-8.27-9-12.66L123.62,55c-.23-5-4-7.06-7.53-7.34-3.84-.31-7.69-.46-11.49-.46s-7.68.15-11.49.46c-3.3,0-7,2-7.53,7.34L83.8,74.17c-1.09,11.57-9,13-9,13.09l0,3.52Z" transform="translate(-19.72)"/><path id="path14" class="cls-1" d="M133.13,37.92A11.7,11.7,0,0,1,135,40.25,11.43,11.43,0,0,0,133.13,37.92Z" transform="translate(-19.72)"/></g></g><path d="M56.22,192.9H48.88V161.44h-.11l-7,31.46H34l-6.87-31.46h-.11V192.9H19.72V155.26H31.21L38,184.93h.11l6.71-29.67H56.22Z" transform="translate(-19.72)"/><path d="M90.08,179a16.64,16.64,0,0,1-1.18,6.56,13,13,0,0,1-3.14,4.59,12.6,12.6,0,0,1-4.54,2.67,17.38,17.38,0,0,1-10.8,0,12.64,12.64,0,0,1-4.53-2.67,13.2,13.2,0,0,1-3.15-4.59A16.82,16.82,0,0,1,61.56,179a16.58,16.58,0,0,1,1.18-6.52,13.07,13.07,0,0,1,3.15-4.56,12.88,12.88,0,0,1,4.53-2.71,16.83,16.83,0,0,1,10.8,0,12.69,12.69,0,0,1,7.68,7.27A16.4,16.4,0,0,1,90.08,179Zm-7.55,0a15.77,15.77,0,0,0-.26-2.8,8.49,8.49,0,0,0-1-2.75,5.85,5.85,0,0,0-2-2.1,7.5,7.5,0,0,0-6.9,0,6,6,0,0,0-2,2.1,8.74,8.74,0,0,0-1,2.75,16.77,16.77,0,0,0-.26,2.8,17,17,0,0,0,.26,2.86,8.65,8.65,0,0,0,1,2.75,5.8,5.8,0,0,0,2,2.07,7.67,7.67,0,0,0,6.9,0,5.62,5.62,0,0,0,2-2.07,8.41,8.41,0,0,0,1-2.75A16,16,0,0,0,82.53,179Z" transform="translate(-19.72)"/><path d="M102.77,195.84a13.09,13.09,0,0,1-.6,4.37,5.29,5.29,0,0,1-1.76,2.52,6.26,6.26,0,0,1-2.83,1.13,25.27,25.27,0,0,1-3.77.26H92v-5.87h1.31a5.27,5.27,0,0,0,.63-.05,1.64,1.64,0,0,0,1.29-1,3.83,3.83,0,0,0,.23-1.47V165h7.34Zm0-34.14H95.43v-6.81h7.34Z" transform="translate(-19.72)"/><path d="M132.39,187.45a7.53,7.53,0,0,0,.48,3.3A2.06,2.06,0,0,0,134,191.8v1.1H126.1c-.1-.31-.19-.59-.26-.84s-.13-.48-.18-.71a5,5,0,0,1-.13-.76c0-.28-.07-.61-.11-1-.42.42-.89.87-1.41,1.36a8.76,8.76,0,0,1-1.87,1.31,11.57,11.57,0,0,1-2.46,1,12.24,12.24,0,0,1-3.28.39,10.79,10.79,0,0,1-3.09-.44,7.79,7.79,0,0,1-2.73-1.44,7.35,7.35,0,0,1-1.94-2.55,8.52,8.52,0,0,1-.73-3.69,9.86,9.86,0,0,1,.6-3.59,7.48,7.48,0,0,1,1.71-2.65,8.54,8.54,0,0,1,2.59-1.76,13.27,13.27,0,0,1,3.23-.92l6.6-1a5.09,5.09,0,0,0,1.71-.55,1.7,1.7,0,0,0,.86-1.65,2.88,2.88,0,0,0-.5-1.81,3,3,0,0,0-1.2-1,5.16,5.16,0,0,0-1.58-.4c-.57-.05-1.09-.07-1.54-.07a5.88,5.88,0,0,0-2.23.36,3.44,3.44,0,0,0-1.34,1,3.73,3.73,0,0,0-.68,1.25,6,6,0,0,0-.26,1.32H108.8a12.07,12.07,0,0,1,1.5-5.14,8.26,8.26,0,0,1,2.91-3,10.3,10.3,0,0,1,3.82-1.34,28.65,28.65,0,0,1,4.25-.32,23.36,23.36,0,0,1,3.38.29,12.06,12.06,0,0,1,3.65,1.16,7.88,7.88,0,0,1,2.9,2.46,6.84,6.84,0,0,1,1.18,4.17Zm-7.18-8.13a6.42,6.42,0,0,1-1.62.79,21.42,21.42,0,0,1-3.36.73,16.46,16.46,0,0,0-1.94.42,6,6,0,0,0-1.57.71,3.23,3.23,0,0,0-1.08,1.18,4,4,0,0,0-.39,1.89,3.37,3.37,0,0,0,.34,1.59,3.19,3.19,0,0,0,.84,1.05,2.78,2.78,0,0,0,1.1.55,4.27,4.27,0,0,0,1.13.16A7.51,7.51,0,0,0,121,188a7,7,0,0,0,2.1-1.1,5.81,5.81,0,0,0,1.5-1.73,4.59,4.59,0,0,0,.57-2.28Z" transform="translate(-19.72)"/><path d="M153.16,192.9h-7.71l-10-27.89h8.17l5.77,20.55h.11L155.41,165h7.81Z" transform="translate(-19.72)"/><path d="M191.27,184.72a12.33,12.33,0,0,1-2.07,4.22,11.45,11.45,0,0,1-3,2.75,12,12,0,0,1-3.54,1.5,15.49,15.49,0,0,1-3.65.44,18.88,18.88,0,0,1-5.47-.76,10.59,10.59,0,0,1-4.41-2.54,12.14,12.14,0,0,1-2.93-4.72,21.06,21.06,0,0,1-1.08-7.23c0-.56,0-1.3.13-2.2a16,16,0,0,1,.6-2.94,15.75,15.75,0,0,1,1.37-3.17,10.64,10.64,0,0,1,2.38-2.89,12.15,12.15,0,0,1,3.67-2.09,14.74,14.74,0,0,1,5.22-.82,17.37,17.37,0,0,1,4.35.61,10.37,10.37,0,0,1,4.25,2.3,12.86,12.86,0,0,1,3.22,4.7,19.78,19.78,0,0,1,1.29,7.76V181H172.45a19.2,19.2,0,0,0,.26,1.94,6.64,6.64,0,0,0,.87,2.25,5.27,5.27,0,0,0,1.94,1.86,6.78,6.78,0,0,0,3.48.76,5.91,5.91,0,0,0,2.91-.76,3.55,3.55,0,0,0,1.81-2.28ZM184,176.18a7.74,7.74,0,0,0-.74-2.81,6,6,0,0,0-1.36-1.81,4.73,4.73,0,0,0-1.73-1,6.34,6.34,0,0,0-1.83-.29,5.14,5.14,0,0,0-4,1.55,7.61,7.61,0,0,0-1.7,4.33Z" transform="translate(-19.72)"/><path d="M60.49,218.17h18.3a14.47,14.47,0,0,1,5.71,1A10,10,0,0,1,88,221.55a8.41,8.41,0,0,1,1.81,3.12,10.57,10.57,0,0,1,.52,3.15,9.6,9.6,0,0,1-.5,3.38,7.6,7.6,0,0,1-1.2,2.2,5.71,5.71,0,0,1-1.52,1.34l-1.39.79a8.85,8.85,0,0,1,2.86,1.62,8.17,8.17,0,0,1,1.78,2.2,9,9,0,0,1,.92,2.55,14.57,14.57,0,0,1,.26,2.75,10.66,10.66,0,0,1-.87,4.27,10.51,10.51,0,0,1-2.38,3.49,13.94,13.94,0,0,1-1.68,1.41,8.67,8.67,0,0,1-2.2,1.08,16.48,16.48,0,0,1-3.23.68,39.5,39.5,0,0,1-4.79.24H60.49ZM68,232.9h9.23a7.44,7.44,0,0,0,4-1,3.45,3.45,0,0,0,1.6-3.22,3.31,3.31,0,0,0-1.54-3.2,8.9,8.9,0,0,0-4.22-.84H68Zm0,16.41h9.65A6.73,6.73,0,0,0,82.14,248a5.14,5.14,0,0,0,1.57-4.19,4.18,4.18,0,0,0-.49-2.12,4.41,4.41,0,0,0-1.29-1.42,5,5,0,0,0-1.81-.79,9.59,9.59,0,0,0-2.07-.23H68Z" transform="translate(-19.72)"/><path d="M121.73,247.64a12.34,12.34,0,0,1-2.08,4.22,11.81,11.81,0,0,1-3,2.75,11.66,11.66,0,0,1-3.54,1.49,15.49,15.49,0,0,1-3.64.45,18.9,18.9,0,0,1-5.48-.76,10.7,10.7,0,0,1-4.41-2.54,12.14,12.14,0,0,1-2.93-4.72,21.12,21.12,0,0,1-1.08-7.24c0-.56,0-1.29.13-2.2a15.28,15.28,0,0,1,.61-2.94A16.19,16.19,0,0,1,97.66,233a10.61,10.61,0,0,1,2.39-2.88,11.73,11.73,0,0,1,3.67-2.1,14.93,14.93,0,0,1,5.21-.81,17.22,17.22,0,0,1,4.35.6,10.28,10.28,0,0,1,4.25,2.31,13,13,0,0,1,3.23,4.69,20,20,0,0,1,1.28,7.76v1.31H102.9a18.83,18.83,0,0,0,.26,1.94,6.77,6.77,0,0,0,.87,2.26,5.43,5.43,0,0,0,1.94,1.86,6.92,6.92,0,0,0,3.49.76,6.08,6.08,0,0,0,2.91-.76,3.66,3.66,0,0,0,1.81-2.28Zm-7.24-8.55a7.89,7.89,0,0,0-.73-2.8,5.79,5.79,0,0,0-1.37-1.81,4.59,4.59,0,0,0-1.73-1,6.34,6.34,0,0,0-1.83-.29,5.1,5.1,0,0,0-4,1.54,7.61,7.61,0,0,0-1.71,4.33Z" transform="translate(-19.72)"/><path d="M134.47,255.82h-7.34V218.17h7.34Z" transform="translate(-19.72)"/><path d="M149,255.82H141.7V218.17H149Z" transform="translate(-19.72)"/></g></g></svg>